<svg xmlns="http://www.w3.org/2000/svg" viewBox="0 0 400 600" role="img" aria-label="Del Mar Opening Day poster">
  <defs>
    <linearGradient id="dg" x1="0" y1="0" x2="0" y2="1">
      <stop offset="0%" stop-color="#7ec8e3"/>
      <stop offset="55%" stop-color="#f6d06a"/>
      <stop offset="100%" stop-color="#e8844b"/>
    </linearGradient>
  </defs>
  <rect width="400" height="600" fill="url(#dg)"/>
  <circle cx="200" cy="140" r="45" fill="#fff" opacity="0.7"/>
  <path d="M0,370 Q100,355 200,370 T400,370 L400,410 L0,410 Z" fill="#3a8fc6" opacity="0.6"/>
  <path d="M0,400 Q100,390 200,400 T400,400 L400,440 L0,440 Z" fill="#2a6f9c"/>
  <rect x="0" y="435" width="400" height="165" fill="#6b3a1a"/>
  <g fill="#fff">
    <rect x="40" y="432" width="2" height="10"/>
    <rect x="120" y="432" width="2" height="10"/>
    <rect x="200" y="432" width="2" height="10"/>
    <rect x="280" y="432" width="2" height="10"/>
    <rect x="360" y="432" width="2" height="10"/>
  </g>
  <text x="200" y="245" text-anchor="middle" font-family="Georgia, serif" font-size="52" fill="#fff" stroke="#8b3b2a" stroke-width="1.8" font-weight="bold">DEL MAR</text>
  <text x="200" y="275" text-anchor="middle" font-family="Georgia, serif" font-size="13" fill="#8b3b2a" font-style="italic">Where the Turf Meets the Surf</text>
  <text x="200" y="320" text-anchor="middle" font-family="sans-serif" font-size="20" fill="#fff" letter-spacing="4">OPENING DAY</text>
  <text x="200" y="345" text-anchor="middle" font-family="sans-serif" font-size="12" fill="#fff" letter-spacing="2">JULY 17 · 2026</text>
</svg>
