<svg xmlns="http://www.w3.org/2000/svg" viewBox="0 0 800 500" role="img" aria-label="Long Beach Grand Prix flyer">
  <defs>
    <linearGradient id="g5" x1="0" y1="0" x2="1" y2="0">
      <stop offset="0%" stop-color="#0d0d0d"/>
      <stop offset="100%" stop-color="#1e2a45"/>
    </linearGradient>
  </defs>
  <rect width="800" height="500" fill="url(#g5)"/>
  <g fill="#f2f2f2">
    <rect x="0" y="260" width="40" height="16"/><rect x="60" y="260" width="40" height="16"/>
    <rect x="120" y="260" width="40" height="16"/><rect x="180" y="260" width="40" height="16"/>
    <rect x="240" y="260" width="40" height="16"/><rect x="300" y="260" width="40" height="16"/>
    <rect x="360" y="260" width="40" height="16"/><rect x="420" y="260" width="40" height="16"/>
    <rect x="480" y="260" width="40" height="16"/><rect x="540" y="260" width="40" height="16"/>
    <rect x="600" y="260" width="40" height="16"/><rect x="660" y="260" width="40" height="16"/>
    <rect x="720" y="260" width="40" height="16"/>
  </g>
  <path d="M200,360 L340,360 L380,330 L560,330 L600,360 L640,360 L640,400 L200,400 Z" fill="#ff3131"/>
  <circle cx="280" cy="400" r="26" fill="#111"/>
  <circle cx="280" cy="400" r="10" fill="#bbb"/>
  <circle cx="560" cy="400" r="26" fill="#111"/>
  <circle cx="560" cy="400" r="10" fill="#bbb"/>
  <text x="400" y="140" text-anchor="middle" font-family="Impact, sans-serif" font-size="58" fill="#ffd23f" letter-spacing="3">GRAND PRIX</text>
  <text x="400" y="180" text-anchor="middle" font-family="sans-serif" font-size="28" fill="#fff" letter-spacing="8">OF LONG BEACH</text>
  <text x="400" y="220" text-anchor="middle" font-family="sans-serif" font-size="18" fill="#ffd23f">APRIL 10–12, 2026</text>
</svg>
